<svg xmlns="http://www.w3.org/2000/svg" viewBox="0 0 512 512">
  <rect width="512" height="512" rx="100" fill="#8b5cf6"/>
  <circle cx="256" cy="256" r="240" stroke="#fff" stroke-width="12" fill="none" />
  <circle cx="256" cy="256" r="203" stroke="#fff" stroke-width="10" fill="none" stroke-dasharray="10 30" />
  <path d="M107 320 Q85 235 128 150" stroke="#fff" stroke-width="10" fill="none" />
  <path d="M112 299 Q91 299 80 283" stroke="#fff" stroke-width="10" fill="none" />
  <path d="M107 267 Q85 267 77 251" stroke="#fff" stroke-width="10" fill="none" />
  <path d="M107 235 Q85 235 80 219" stroke="#fff" stroke-width="10" fill="none" />
  <path d="M112 203 Q96 197 96 181" stroke="#fff" stroke-width="10" fill="none" />
  <path d="M405 320 Q427 235 384 150" stroke="#fff" stroke-width="10" fill="none" />
  <path d="M400 299 Q421 299 432 283" stroke="#fff" stroke-width="10" fill="none" />
  <path d="M405 267 Q427 267 435 251" stroke="#fff" stroke-width="10" fill="none" />
  <path d="M405 235 Q427 235 432 219" stroke="#fff" stroke-width="10" fill="none" />
  <path d="M400 203 Q416 197 416 181" stroke="#fff" stroke-width="10" fill="none" />
  <text x="256" y="320" text-anchor="middle" fill="#fff" font-family="'Source Serif 4', Georgia, serif" font-size="213" font-weight="500">M</text>
</svg>
