<svg xmlns="http://www.w3.org/2000/svg" viewBox="0 0 48 48">
  <circle cx="24" cy="24" r="22.5" stroke="#8b5cf6" stroke-width="1.2" fill="none" />
  <circle cx="24" cy="24" r="19" stroke="#8b5cf6" stroke-width="1" fill="none" stroke-dasharray="1 3" />
  <path d="M10 30 Q8 22 12 14" stroke="#8b5cf6" stroke-width="1" fill="none" />
  <path d="M10.5 28 Q8.5 28 7.5 26.5" stroke="#8b5cf6" stroke-width="1" fill="none" />
  <path d="M10 25 Q8 25 7.2 23.5" stroke="#8b5cf6" stroke-width="1" fill="none" />
  <path d="M10 22 Q8 22 7.5 20.5" stroke="#8b5cf6" stroke-width="1" fill="none" />
  <path d="M10.5 19 Q9 18.5 9 17" stroke="#8b5cf6" stroke-width="1" fill="none" />
  <path d="M38 30 Q40 22 36 14" stroke="#8b5cf6" stroke-width="1" fill="none" />
  <path d="M37.5 28 Q39.5 28 40.5 26.5" stroke="#8b5cf6" stroke-width="1" fill="none" />
  <path d="M38 25 Q40 25 40.8 23.5" stroke="#8b5cf6" stroke-width="1" fill="none" />
  <path d="M38 22 Q40 22 40.5 20.5" stroke="#8b5cf6" stroke-width="1" fill="none" />
  <path d="M37.5 19 Q39 18.5 39 17" stroke="#8b5cf6" stroke-width="1" fill="none" />
  <text x="24" y="30" text-anchor="middle" fill="#8b5cf6" font-family="'Source Serif 4', Georgia, serif" font-size="20" font-weight="500">M</text>
</svg>
